<?xml version="1.0" encoding="UTF-8" standalone="no"?>
<svg width="137px" height="28px" viewBox="0 0 137 28" version="1.1" xmlns="http://www.w3.org/2000/svg" xmlns:xlink="http://www.w3.org/1999/xlink">
    <!-- Generator: Sketch 3.8.3 (29802) - http://www.bohemiancoding.com/sketch -->
    <title>Page 1</title>
    <desc>Created with Sketch.</desc>
    <defs>
        <polygon id="path-1" points="42.299 15.5285 42.299 0.7555 0.3185 0.7555 0.3185 15.5285 42.299 15.5285"></polygon>
    </defs>
    <g id="Page-1" stroke="none" stroke-width="1" fill="none" fill-rule="evenodd">
        <g id="#3" transform="translate(-121.000000, -5231.000000)">
            <g id="footer" transform="translate(0.000000, 5123.000000)">
                <g id="Logo" transform="translate(121.000000, 108.000000)">
                    <g id="Page-1">
                        <g id="Group-3" transform="translate(94.000000, 5.507100)">
                            <mask id="mask-2" fill="white">
                                <use xlink:href="#path-1"></use>
                            </mask>
                            <g id="Clip-2"></g>
                            <path d="M27.6445,11.6415 C27.6445,13.7845 25.9085,15.5225 23.7675,15.5225 L18.7055,15.5225 C16.5645,15.5225 14.8265,13.7845 14.8265,11.6415 L14.8265,4.6895 C14.8265,2.5465 16.5645,0.8085 18.7055,0.8085 L23.7675,0.8085 C25.9085,0.8085 27.6445,2.5465 27.6445,4.6895 L27.6445,11.6415 Z M24.4495,11.2695 L24.4495,5.0615 C24.4495,4.2855 23.8295,3.6645 23.0505,3.6645 L19.4205,3.6645 C18.6435,3.6645 18.0235,4.2855 18.0235,5.0615 L18.0235,11.2695 C18.0235,12.0455 18.6435,12.6675 19.4205,12.6675 L23.0505,12.6675 C23.8295,12.6675 24.4495,12.0455 24.4495,11.2695 L24.4495,11.2695 Z M38.8735,4.8715 L38.8735,4.6645 C38.8735,4.0955 38.4195,3.6425 37.8525,3.6425 L30.1685,3.6425 L30.1685,1.9275 C30.1685,1.1995 30.7695,0.7555 31.4505,0.7555 L38.4755,0.7555 C40.4545,0.7555 42.0585,2.3615 42.0585,4.3395 L42.0585,5.4415 C42.0585,6.7155 41.2015,8.1135 39.4835,8.6565 L34.0855,10.5865 C33.3415,10.9585 33.1375,11.6045 33.1375,12.2165 L33.1375,12.6405 L42.2995,12.6405 L42.2995,14.3545 C42.2995,15.0835 41.7005,15.5285 41.0205,15.5285 L29.9525,15.5285 L29.9525,11.7825 C29.9525,9.9855 31.1485,8.4605 32.2545,8.1135 L38.1995,6.0665 C38.8205,5.8505 38.8735,5.3245 38.8735,4.8715 L38.8735,4.8715 Z M9.2395,4.8715 L9.2395,4.6645 C9.2395,4.0955 8.7855,3.6425 8.2175,3.6425 L0.5345,3.6425 L0.5345,1.9275 C0.5345,1.1995 1.1355,0.7555 1.8165,0.7555 L8.8395,0.7555 C10.8195,0.7555 12.4245,2.3615 12.4245,4.3395 L12.4245,5.4415 C12.4245,6.7155 11.5675,8.1135 9.8495,8.6565 L4.4515,10.5865 C3.7085,10.9585 3.5035,11.6045 3.5035,12.2165 L3.5035,12.6405 L12.6645,12.6405 L12.6645,14.3545 C12.6645,15.0835 12.0665,15.5285 11.3865,15.5285 L0.3185,15.5285 L0.3185,11.7825 C0.3185,9.9855 1.5115,8.4605 2.6195,8.1135 L8.5635,6.0665 C9.1855,5.8505 9.2395,5.3245 9.2395,4.8715 L9.2395,4.8715 Z" id="Fill-1" fill="#D05327" mask="url(#mask-2)"></path>
                        </g>
                        <g id="Group-6" transform="translate(0.000000, 5.507100)" fill="#FFFFFF">
                            <path d="M11.6009,11.2783 L11.6009,5.0493 C11.6009,4.2713 10.9779,3.6483 10.1989,3.6483 L6.5549,3.6483 C5.7759,3.6483 5.1529,4.2713 5.1529,5.0493 L5.1529,11.2783 C5.1529,12.0553 5.7759,12.6793 6.5549,12.6793 L10.1989,12.6793 C10.9779,12.6793 11.6009,12.0553 11.6009,11.2783 L11.6009,11.2783 Z M9.1789,15.5473 L8.0819,15.5433 L9.1789,15.5473 Z M1.9359,3.6673 L-0.0001,3.6673 L-0.0001,1.9243 C-0.0001,1.2383 0.5589,0.8023 1.2439,0.8023 L5.8029,0.7833 L6.3029,0.7823 L10.9129,0.7833 C13.0629,0.7833 14.8059,2.5263 14.8059,4.6763 L14.8059,11.6503 C14.8059,13.7993 13.0629,15.5433 10.9129,15.5433 L9.1789,15.5433 L8.0819,15.5433 L5.8379,15.5433 C5.7539,15.5433 5.6689,15.5403 5.5859,15.5363 L5.4329,15.5363 C5.2459,15.5363 5.1529,15.6593 5.1529,15.9393 L5.1529,20.6743 C5.1529,21.2973 4.6569,21.9203 3.7839,21.9203 L1.9419,21.9203 L1.9449,3.6673 L1.9359,3.6673 Z" id="Fill-4"></path>
                        </g>
                        <path d="M26.0644,6.2907 L21.3474,6.2907 C19.1974,6.2907 17.4544,8.0337 17.4544,10.1837 L17.4524,21.0297 L19.2794,21.0297 C20.1524,21.0297 20.6504,20.4057 20.6504,19.7827 L20.6564,10.5567 C20.6564,9.7777 21.2784,9.1547 22.0574,9.1547 L27.1834,9.1547 L27.1834,7.3807 C27.1834,6.8187 26.7484,6.2907 26.0644,6.2907" id="Fill-7" fill="#FFFFFF"></path>
                        <path d="M46.9376,3.4158 L47.6546,3.4158 C48.3386,3.4158 48.8986,2.8538 48.8986,2.1698 L48.8986,1.3058 C48.8986,0.6208 48.3386,0.0608 47.6546,0.0608 L46.9376,0.0608 C46.2526,0.0608 45.6916,0.6208 45.6916,1.3058 L45.6916,2.1698 C45.6916,2.8538 46.2526,3.4158 46.9376,3.4158" id="Fill-9" fill="#FFFFFF"></path>
                        <path d="M88.0751,21.0204 C85.9891,21.0204 84.5571,19.6754 84.5571,17.6814 L84.5801,9.1554 L83.4561,9.1554 L82.0761,9.1544 L82.0761,7.4094 C82.0761,6.7254 82.6371,6.2894 83.3231,6.2894 L84.4181,6.2904 L84.5801,6.2914 L84.5801,2.3734 C84.5801,1.6874 85.1411,1.1274 85.8251,1.1274 L86.5431,1.1274 C87.2271,1.1274 87.7881,1.6874 87.7881,2.3734 L87.7881,6.2914 L90.3411,6.2914 C91.0261,6.2914 91.5251,6.7894 91.5251,7.2574 L91.5251,9.1554 L87.7881,9.1554 L87.7881,17.0384 C87.7881,18.0644 88.3491,18.1634 88.7541,18.1634 L91.6181,18.1634 L91.6221,19.7664 C91.6221,20.3904 91.1221,21.0134 90.2521,21.0134 L88.0751,21.0204 Z" id="Fill-11" fill="#FFFFFF"></path>
                        <path d="M79.4923,18.1751 L74.7073,12.1781 L78.1013,9.1561 L78.3623,9.1561 L78.3623,9.1581 L80.0883,9.1581 L80.0863,6.2911 L77.8523,6.2911 C77.1673,6.2911 76.7923,6.4471 76.3883,6.7891 L71.1563,11.4301 L71.1563,1.1841 C71.1563,0.5001 70.7523,0.0011 69.9723,0.0011 L67.2503,0.0001 C66.5653,0.0001 66.0063,0.4381 66.0063,1.1211 L66.0063,2.8651 L67.9493,2.8661 L67.9493,16.8201 L67.9493,18.1661 L65.9903,18.1881 L65.9903,21.0521 L69.7873,21.0301 C70.6593,21.0301 71.1563,20.4071 71.1563,19.7841 L71.1563,16.8201 L71.1563,15.2921 L72.4013,14.2011 L77.2593,20.3371 C77.5403,20.6791 78.1013,21.0291 78.8183,21.0291 L78.9443,21.0301 L80.1043,21.0301 C80.9773,21.0301 81.4733,20.4071 81.4733,19.7841 L81.4733,18.1741 L79.4923,18.1751 Z" id="Fill-13" fill="#FFFFFF"></path>
                        <path d="M61.2596,12.3003 L54.7836,12.3003 L54.7836,10.4003 C54.7836,9.7153 55.3426,9.1553 56.0266,9.1553 L60.0126,9.1553 C60.6986,9.1553 61.2596,9.7153 61.2596,10.4003 L61.2596,12.3003 Z M64.4656,10.1833 C64.4656,8.0333 62.7226,6.2903 60.5756,6.2903 L55.4656,6.2903 C53.3176,6.2903 51.5746,8.0033 51.5746,10.1833 L51.5746,17.1573 C51.5746,19.3383 53.3176,21.0503 55.4656,21.0503 L62.5316,21.0503 C63.2196,21.0503 63.7776,20.6143 63.7776,19.9303 L63.7776,18.1863 L56.0596,18.1863 C55.3426,18.1863 54.7836,17.6873 54.7836,16.9093 L54.7836,14.8853 L62.5366,14.8853 C63.5956,14.8853 64.4656,14.0123 64.4656,12.9543 L64.4656,10.1833 L64.4656,10.1833 Z" id="Fill-15" fill="#FFFFFF"></path>
                        <path d="M38.5867,16.7854 C38.5867,17.5624 37.9647,18.1864 37.1847,18.1864 L33.5417,18.1864 C32.7637,18.1864 32.1407,17.5624 32.1407,16.7854 L32.1407,10.5564 C32.1407,9.7784 32.7637,9.1554 33.5417,9.1554 L37.1847,9.1554 C37.9647,9.1554 38.5867,9.7784 38.5867,10.5564 L38.5867,16.7854 Z M37.9027,6.2904 L32.8257,6.2904 C30.6777,6.2904 28.9337,8.0334 28.9337,10.1834 L28.9337,17.1574 C28.9337,19.3064 30.6777,21.0504 32.8257,21.0504 L37.9027,21.0504 C40.0507,21.0504 41.7957,19.3064 41.7957,17.1574 L41.7957,10.1834 C41.7957,8.0334 40.0507,6.2904 37.9027,6.2904 L37.9027,6.2904 Z" id="Fill-17" fill="#FFFFFF"></path>
                        <path d="M48.9164,7.5222 L48.9164,24.1122 C48.9164,26.0122 47.5164,27.5072 45.4594,27.5072 L43.8544,27.5012 C42.9834,27.5012 42.4854,26.8782 42.4854,26.2562 L42.4834,24.7072 C42.4834,24.7072 44.4624,24.7032 44.7124,24.7032 C45.3364,24.7032 45.7094,24.3932 45.7094,23.5512 L45.7094,9.1402 L43.7704,9.1402 L43.7704,6.2762 L47.6724,6.2762 C48.3554,6.2762 48.9164,6.8362 48.9164,7.5222" id="Fill-19" fill="#FFFFFF"></path>
                    </g>
                </g>
            </g>
        </g>
    </g>
</svg>